<?xml version="1.0" standalone="no"?>
<!DOCTYPE svg PUBLIC "-//W3C//DTD SVG 20010904//EN"
 "http://www.w3.org/TR/2001/REC-SVG-20010904/DTD/svg10.dtd">
<svg version="1.0" xmlns="http://www.w3.org/2000/svg"
 width="189.000000pt" height="189.000000pt" viewBox="0 0 189.000000 189.000000"
 preserveAspectRatio="xMidYMid meet">
<metadata>
Created by potrace 1.11, written by Peter Selinger 2001-2013
</metadata>
<g transform="translate(0.000000,189.000000) scale(0.100000,-0.100000)"
fill="#000000" stroke="none">
<path d="M10 1291 l0 -81 144 0 c118 0 147 -3 160 -16 18 -18 19 -23 6 -44 -7
-12 -39 -16 -158 -18 l-149 -3 -6 -296 c-4 -162 -4 -299 -1 -304 3 -5 411 -9
946 -9 748 0 939 3 936 13 -49 131 -73 193 -78 197 -4 3 -58 148 -121 323
l-113 317 -108 0 c-59 0 -108 -4 -108 -8 0 -4 41 -109 90 -232 50 -123 90
-228 90 -232 0 -4 -36 -8 -80 -8 -44 0 -80 3 -80 8 0 4 14 57 30 117 16 61 30
111 30 113 0 1 -40 2 -88 2 l-88 0 -64 -200 -65 -199 -85 0 c-62 1 -76 3 -53
9 88 21 143 104 143 216 0 82 -18 119 -76 155 -37 23 -48 24 -246 27 l-208 3
0 -85 0 -86 150 0 c130 0 151 -2 157 -16 3 -9 2 -24 -4 -33 -8 -13 -35 -16
-157 -19 l-146 -3 0 -84 0 -85 -200 0 -200 0 0 124 0 124 98 4 c80 3 105 8
142 28 68 38 90 78 90 164 0 89 -21 132 -81 166 -42 24 -52 25 -246 28 l-203
3 0 -80z m148 -608 l-48 -4 0 -60 0 -59 -35 0 -35 0 0 65 0 65 83 -2 c53 -1
65 -3 35 -5z m409 -15 c16 -16 16 -19 2 -34 -9 -8 -41 -18 -72 -21 -52 -5 -57
-8 -57 -29 0 -20 -5 -24 -30 -24 l-30 0 0 66 0 66 85 -3 c64 -3 89 -8 102 -21z
m286 -15 l39 -38 32 38 c18 20 39 37 45 37 7 0 -13 -29 -44 -65 -32 -36 -62
-65 -67 -65 -5 0 -6 5 -2 11 3 6 -18 35 -47 65 l-53 54 29 0 c20 0 41 -12 68
-37z m517 -28 l0 -65 -30 0 c-28 0 -29 1 -32 58 l-3 57 -37 3 -38 3 0 -60 0
-61 -35 0 -35 0 0 65 0 65 105 0 105 0 0 -65z m400 0 l0 -65 -30 0 c-28 0 -29
1 -32 58 l-3 57 -37 3 -38 3 0 -60 0 -61 -35 0 -35 0 0 65 0 65 105 0 105 0 0
-65z"/>
<path d="M447 673 c-4 -3 -7 -15 -7 -25 0 -14 8 -18 35 -18 28 0 35 4 35 19 0
11 -9 21 -22 25 -29 7 -33 7 -41 -1z"/>
<path d="M610 1290 l0 -80 235 0 235 0 0 80 0 80 -235 0 -235 0 0 -80z"/>
</g>
</svg>
